<svg xmlns="http://www.w3.org/2000/svg" width="800" height="800" viewBox="0 0 800 800"><defs>
<linearGradient id="pbSky" x1="0" y1="0" x2="0" y2="1"><stop stop-color="#B8E0FF"/><stop offset="1" stop-color="#F8FAFF"/></linearGradient>
<filter id="pbShadow"><feDropShadow dx="0" dy="4" stdDeviation="4" flood-opacity=".15"/></filter>
<symbol id="pbBloom" viewBox="0 0 120 220">
<ellipse cx="42" cy="28" rx="13" ry="30" fill="#D59A78" stroke="#2B2D42" stroke-width="4" transform="rotate(-10 42 28)"/><ellipse cx="78" cy="28" rx="13" ry="30" fill="#D59A78" stroke="#2B2D42" stroke-width="4" transform="rotate(10 78 28)"/>
<ellipse cx="42" cy="28" rx="7" ry="21" fill="#F5B5B0"/><ellipse cx="78" cy="28" rx="7" ry="21" fill="#F5B5B0"/>
<circle cx="60" cy="79" r="39" fill="#201915"/><circle cx="26" cy="78" r="14" fill="#201915"/><circle cx="94" cy="78" r="14" fill="#201915"/><circle cx="40" cy="53" r="12" fill="#201915"/><circle cx="58" cy="48" r="12" fill="#201915"/><circle cx="76" cy="53" r="12" fill="#201915"/>
<path d="M25 57 Q60 41 95 57 L90 70 Q60 58 30 70Z" fill="#5BA86B" stroke="#2B2D42" stroke-width="3"/>
<ellipse cx="60" cy="84" rx="30" ry="29" fill="#B97855" stroke="#2B2D42" stroke-width="3"/><ellipse cx="49" cy="81" rx="4" ry="6" fill="#2B2D42"/><ellipse cx="71" cy="81" rx="4" ry="6" fill="#2B2D42"/><circle cx="48" cy="79" r="1.5" fill="white"/><circle cx="70" cy="79" r="1.5" fill="white"/><path d="M55 93 Q60 98 65 93" fill="none" stroke="#2B2D42" stroke-width="2.5" stroke-linecap="round"/>
<path d="M38 119 Q60 106 82 119 L86 162 H34Z" fill="#F8FAFF" stroke="#2B2D42" stroke-width="3"/><path d="M34 159 H86 L81 184 H39Z" fill="#243B64" stroke="#2B2D42" stroke-width="3"/><rect x="34" y="131" width="52" height="8" fill="#FFD6E7"/>
<path d="M40 183 L35 211" stroke="#B97855" stroke-width="10" stroke-linecap="round"/><path d="M80 183 L85 211" stroke="#B97855" stroke-width="10" stroke-linecap="round"/><path d="M27 214 H46" stroke="#2B2D42" stroke-width="10" stroke-linecap="round"/><path d="M74 214 H93" stroke="#2B2D42" stroke-width="10" stroke-linecap="round"/><path d="M37 132 L20 164" stroke="#B97855" stroke-width="10" stroke-linecap="round"/><path d="M83 132 L100 164" stroke="#B97855" stroke-width="10" stroke-linecap="round"/>
</symbol>
<symbol id="pbLeaf" viewBox="0 0 100 100"><path d="M18 66C21 27 56 12 83 17C85 51 65 80 29 81Z" fill="#5BA86B" stroke="#2B2D42" stroke-width="5"/><path d="M27 73L72 28" stroke="#F8FAFF" stroke-width="5" stroke-linecap="round"/></symbol>
</defs><rect width="800" height="800" rx="40" fill="#FFE1B8"/><circle cx="645" cy="170" r="110" fill="white" opacity=".42"/><use href="#pbBloom" x="400" y="170" width="250" height="470"/><rect x="48" y="500" width="704" height="220" rx="30" fill="#F8FAFF" stroke="#2B2D42" stroke-width="5"/><text x="82" y="568" font-family="system-ui" font-weight="900" font-size="42" fill="#2B2D42">Triceps Pushdown</text><rect x="82" y="604" width="160" height="54" rx="27" fill="#243B64"/><text x="162" y="640" text-anchor="middle" font-family="system-ui" font-size="22" font-weight="800" fill="white">CABLE</text><text x="82" y="692" font-family="system-ui" font-size="20" fill="#556">Discovery thumbnail · see canonical media for form</text></svg>
